<svg xmlns="http://www.w3.org/2000/svg" xmlns:xlink="http://www.w3.org/1999/xlink" contentStyleType="text/css" data-diagram-type="DESCRIPTION" height="449px" preserveAspectRatio="none" style="width:2205px;height:449px;background:#FFFFFF;" version="1.1" viewBox="0 0 2205 449" width="2205px" zoomAndPan="magnify"><?plantuml 1.2026.6?><defs/><g><g class="title" data-source-line="5"><text fill="#000000" font-family="Verdana" font-size="22" font-weight="700" lengthAdjust="spacing" textLength="691.9365" x="755.6817" y="37.1182">BC-02 Customer &amp; Buyer Relationships &#8212; C4 L3 TARGET</text></g><!--cluster Nexa API ? logical BC-02 ownership--><g class="cluster" data-qualified-name="Nexa API . logical BC-02 ownership" data-source-line="9" id="ent0001"><path d="M13.5,111.2573 L302.2383,111.2573 A3.75,3.75 0 0 1 304.7383,113.7573 L311.7383,134.272 L2187.8,134.272 A2.5,2.5 0 0 1 2190.3,136.772 L2190.3,321.7573 A2.5,2.5 0 0 1 2187.8,324.2573 L13.5,324.2573 A2.5,2.5 0 0 1 11,321.7573 L11,113.7573 A2.5,2.5 0 0 1 13.5,111.2573" fill="#FFFFFF" style="stroke:#000000;stroke-width:1;"/><line style="stroke:#000000;stroke-width:1;" x1="11" x2="311.7383" y1="134.272" y2="134.272"/><text fill="#000000" font-family="Verdana" font-size="14" font-weight="700" lengthAdjust="spacing" textLength="287.7383" x="15" y="127.3325">Nexa API &#8212; logical BC-02 ownership</text></g><!--entity api--><g class="entity" data-qualified-name="Nexa API . logical BC-02 ownership.api" data-source-line="10" id="ent0002"><rect fill="#FFFFFF" height="54.0293" rx="2.5" ry="2.5" style="stroke:#000000;stroke-width:1;" width="268.4521" x="27" y="237.2373"/><text fill="#000000" font-family="Verdana" font-size="14" lengthAdjust="spacing" textLength="248.4521" x="37" y="261.3125">Customer &amp; Buyer Relationship API</text><text fill="#000000" font-family="Verdana" font-size="14" lengthAdjust="spacing" textLength="81.5938" x="37" y="278.3271">&#171;Interface&#187;</text></g><!--entity app--><g class="entity" data-qualified-name="Nexa API . logical BC-02 ownership.app" data-source-line="11" id="ent0003"><rect fill="#FFFFFF" height="88.0586" rx="2.5" ry="2.5" style="stroke:#000000;stroke-width:1;" width="259.5928" x="356.45" y="220.2273"/><text fill="#000000" font-family="Verdana" font-size="14" lengthAdjust="spacing" textLength="224.7861" x="366.45" y="244.3025">CreateCustomerAccountHandler</text><text fill="#000000" font-family="Verdana" font-size="14" lengthAdjust="spacing" textLength="239.5928" x="366.45" y="261.3171">ApproveBuyerRelationshipHandler</text><text fill="#000000" font-family="Verdana" font-size="14" lengthAdjust="spacing" textLength="179.4775" x="366.45" y="278.3318">LinkBuyerIdentityHandler</text><text fill="#000000" font-family="Verdana" font-size="14" lengthAdjust="spacing" textLength="95.1631" x="366.45" y="295.3464">&#171;Application&#187;</text></g><!--entity domain--><g class="entity" data-qualified-name="Nexa API . logical BC-02 ownership.domain" data-source-line="12" id="ent0004"><rect fill="#FFFFFF" height="71.0439" rx="2.5" ry="2.5" style="stroke:#000000;stroke-width:1;" width="290.5938" x="971.04" y="236.7273"/><text fill="#000000" font-family="Verdana" font-size="14" lengthAdjust="spacing" textLength="270.5938" x="981.04" y="260.8025">CustomerAccount &amp; BuyerRelationship</text><text fill="#000000" font-family="Verdana" font-size="14" lengthAdjust="spacing" textLength="119.4648" x="981.04" y="277.8171">Eligibility Policies</text><text fill="#000000" font-family="Verdana" font-size="14" lengthAdjust="spacing" textLength="72.0576" x="981.04" y="294.8318">&#171;Domain&#187;</text></g><!--entity infra--><g class="entity" data-qualified-name="Nexa API . logical BC-02 ownership.infra" data-source-line="13" id="ent0005"><rect fill="#FFFFFF" height="54.0293" rx="2.5" ry="2.5" style="stroke:#000000;stroke-width:1;" width="372.7207" x="1467.64" y="245.2373"/><text fill="#000000" font-family="Verdana" font-size="14" lengthAdjust="spacing" textLength="352.7207" x="1477.64" y="269.3125">Relationship Repositories &amp; Tenant Scope Adapter</text><text fill="#000000" font-family="Verdana" font-size="14" lengthAdjust="spacing" textLength="115.7324" x="1477.64" y="286.3271">&#171;Infrastructure&#187;</text></g><!--entity db--><g class="entity" data-qualified-name="Nexa API . logical BC-02 ownership.db" data-source-line="14" id="ent0006"><path d="M2014.36,250.7373 C2014.36,240.7373 2094.3327,240.7373 2094.3327,240.7373 C2094.3327,240.7373 2174.3053,240.7373 2174.3053,250.7373 L2174.3053,293.7666 C2174.3053,303.7666 2094.3327,303.7666 2094.3327,303.7666 C2094.3327,303.7666 2014.36,303.7666 2014.36,293.7666 L2014.36,250.7373" fill="#FFFFFF" style="stroke:#000000;stroke-width:1;"/><path d="M2014.36,250.7373 C2014.36,260.7373 2094.3327,260.7373 2094.3327,260.7373 C2094.3327,260.7373 2174.3053,260.7373 2174.3053,250.7373" fill="none" style="stroke:#000000;stroke-width:1;"/><text fill="#000000" font-family="Verdana" font-size="14" lengthAdjust="spacing" textLength="135.9668" x="2024.36" y="278.8125">Shared PostgreSQL</text><text fill="#000000" font-family="Verdana" font-size="14" lengthAdjust="spacing" textLength="139.9453" x="2024.36" y="295.8271">BC-02 logical tables</text></g><!--entity outbox--><g class="entity" data-qualified-name="Nexa API . logical BC-02 ownership.outbox" data-source-line="15" id="ent0007"><rect fill="#FFFFFF" height="54.0293" rx="2.5" ry="2.5" style="stroke:#000000;stroke-width:1;" width="169.6523" x="1031.51" y="147.2373"/><text fill="#000000" font-family="Verdana" font-size="14" lengthAdjust="spacing" textLength="149.6523" x="1041.51" y="171.3125">Transactional Outbox</text><text fill="#000000" font-family="Verdana" font-size="14" lengthAdjust="spacing" textLength="86.2627" x="1041.51" y="188.3271">&#171;Reliability&#187;</text></g><!--entity contracts--><g class="entity" data-qualified-name="contracts" data-source-line="17" id="ent0008"><rect fill="#FFFFFF" height="54.0293" rx="2.5" ry="2.5" style="stroke:#000000;stroke-width:1;" width="323.0508" x="954.81" y="343.2373"/><text fill="#000000" font-family="Verdana" font-size="14" lengthAdjust="spacing" textLength="303.0508" x="964.81" y="367.3125">BC-01 access / BC-03 and BC-04 contracts</text><text fill="#000000" font-family="Verdana" font-size="14" lengthAdjust="spacing" textLength="137.3066" x="964.81" y="384.3271">&#171;explicit contracts&#187;</text></g><g class="entity" data-qualified-name="GMN15" data-source-line="25" id="ent0016"><path d="M826.04,69.3573 L826.04,95.1566 L1406.6303,95.1566 L1406.6303,79.3573 L1396.6303,69.3573 L826.04,69.3573" fill="#FFFFFF" style="stroke:#000000;stroke-width:1;"/><path d="M1396.6303,69.3573 L1396.6303,79.3573 L1406.6303,79.3573 L1396.6303,69.3573" fill="#FFFFFF" style="stroke:#000000;stroke-width:1;"/><text fill="#000000" font-family="Verdana" font-size="13" lengthAdjust="spacing" textLength="559.5903" x="832.04" y="87.4271">Customer Account != Human Identity; Buyer Relationship != Workforce Membership.</text></g><!--link api to app--><g class="link" data-entity-1="ent0002" data-entity-2="ent0003" data-link-type="dependency" data-source-line="18" id="lnk9"><path d="M295.94,264.2573 C315.82,264.2573 331.27,264.2573 351.05,264.2573" fill="none" id="api-to-app" style="stroke:#000000;stroke-width:1;"/><polygon fill="#000000" points="356.05,264.2573,347.05,260.2573,351.05,264.2573,347.05,268.2573,356.05,264.2573" style="stroke:#000000;stroke-width:1;stroke-linejoin:miter;stroke-miterlimit:10;"/></g><!--link app to domain--><g class="link" data-entity-1="ent0003" data-entity-2="ent0004" data-link-type="dependency" data-source-line="19" id="lnk10"><path d="M616.25,265.8973 C719.28,267.2073 858.6304,268.9837 965.5904,270.3437" fill="none" id="app-to-domain" style="stroke:#000000;stroke-width:1;"/><polygon fill="#000000" points="970.59,270.4073,961.6416,266.2932,965.5904,270.3437,961.5399,274.2926,970.59,270.4073" style="stroke:#000000;stroke-width:1;stroke-linejoin:miter;stroke-miterlimit:10;"/><text fill="#000000" font-family="Verdana" font-size="13" lengthAdjust="spacing" textLength="148.478" x="647.04" y="263.4671">approve, link, suspend</text></g><!--link domain to infra--><g class="link" data-entity-1="ent0004" data-entity-2="ent0005" data-link-type="dependency" data-source-line="20" id="lnk11"><path d="M1261.94,272.2573 C1325.15,272.2573 1395.07,272.2573 1462.34,272.2573" fill="none" id="domain-to-infra" style="stroke:#000000;stroke-width:1;"/><polygon fill="#000000" points="1467.34,272.2573,1458.34,268.2573,1462.34,272.2573,1458.34,276.2573,1467.34,272.2573" style="stroke:#000000;stroke-width:1;stroke-linejoin:miter;stroke-miterlimit:10;"/></g><!--link infra to db--><g class="link" data-entity-1="ent0005" data-entity-2="ent0006" data-link-type="dependency" data-source-line="21" id="lnk12"><path d="M1840.57,272.2573 C1901.28,272.2573 1960.51,272.2573 2009.03,272.2573" fill="none" id="infra-to-db" style="stroke:#000000;stroke-width:1;"/><polygon fill="#000000" points="2014.03,272.2573,2005.03,268.2573,2009.03,272.2573,2005.03,276.2573,2014.03,272.2573" style="stroke:#000000;stroke-width:1;stroke-linejoin:miter;stroke-miterlimit:10;"/><text fill="#000000" font-family="Verdana" font-size="13" lengthAdjust="spacing" textLength="112.5566" x="1871.36" y="269.3271">logical ownership</text></g><!--link app to contracts--><g class="link" data-entity-1="ent0003" data-entity-2="ent0008" data-link-type="dependency" data-source-line="22" id="lnk13"><path d="M616.36,287.9473 C626.4,289.7473 636.39,291.5373 646.04,293.2573 C725.97,307.4373 745.96,310.9873 826.04,324.2573 C867.69,331.1473 907.8021,337.6219 949.6721,344.2819" fill="none" id="app-to-contracts" style="stroke:#000000;stroke-width:1;"/><polygon fill="#000000" points="954.61,345.0673,946.3501,339.7032,949.6721,344.2819,945.0934,347.6038,954.61,345.0673" style="stroke:#000000;stroke-width:1;stroke-linejoin:miter;stroke-miterlimit:10;"/><text fill="#000000" font-family="Verdana" font-size="13" lengthAdjust="spacing" textLength="144.7393" x="649.04" y="290.3271">eligibility by reference</text></g><!--link app to outbox--><g class="link" data-entity-1="ent0003" data-entity-2="ent0007" data-link-type="dependency" data-source-line="23" id="lnk14"><path d="M616.38,245.5273 C626.41,244.0773 636.39,242.6373 646.04,241.2573 C780.87,221.8673 932.5599,200.2516 1026.4599,186.8916" fill="none" id="app-to-outbox" style="stroke:#000000;stroke-width:1;"/><polygon fill="#000000" points="1031.41,186.1873,1021.9363,183.4949,1026.4599,186.8916,1023.0632,191.4152,1031.41,186.1873" style="stroke:#000000;stroke-width:1;stroke-linejoin:miter;stroke-miterlimit:10;"/><text fill="#000000" font-family="Verdana" font-size="13" lengthAdjust="spacing" textLength="105.2251" x="668.54" y="217.9771">committed facts</text></g><!--link domain to GMN15--><g class="link" data-entity-1="ent0004" data-entity-2="ent0016" data-link-type="association" data-source-line="25" id="lnk17"><path d="M970.7,270.7673 C828.82,264.1873 644.84,238.8473 721.04,148.7573 C796.77,59.2173 944.07,58.7373 1035.91,68.8673" fill="none" id="domain-GMN15" style="stroke:#000000;stroke-width:1;stroke-dasharray:7,7;"/></g><g class="legend" data-source-line="6"><rect fill="none" height="27.0146" rx="7.5" ry="7.5" style="stroke:#000000;stroke-width:1;" width="711.2852" x="746.0074" y="410.2666"/><text fill="#000000" font-family="Verdana" font-size="14" lengthAdjust="spacing" textLength="701.2852" x="751.0074" y="429.3418">Component view inside the shared Nexa API modular monolith; no separate deployment is implied.</text></g><?plantuml-src VLDDRzim3BtxLx0vxDJkgpsjMO4qAzO0tTOr0NR9XPPfXuWi2PBSDXW6x4Vi5-wNZ99ZBnsA7H9R5ldUuoDv53VK4ZYDR0fDTOHemNEpYL2n9nNPcY9isJZqs4BOO6KVs3HGemvqSADiwwmX4vTnfmbIAff6Kn4volboVlBwBSox46rB7bx0PRUJvnrfJ1HXmox0xv-_O7u6DwUmcjrzl5g9e8PC1QMDabO0p0SIk6Tw03Q1Am8f8GdpLC5dUaIOtIwWjLMdqSlJMCrnSmx6Gg2aDH9KvBJTjGc80t3hD5FriX2kdh5mgBRO44n6mAHDsuOLwdqnzi6GJy8dy5sqZGR0vBzb9hIrcKuN9fAlKT75nGGm03h-1yMJQ1smPahPpiHhJ1hzsioSy_QUCluX_1XmmsQRRnULm77SZJVJgIHhgIJbZEpk-Hhsl4CfXrHhSwMvuPB5u1tSYi-AAIJy3xQLUTf3L_dm5Fs98NVaRE1elMGBpueCIinIMKSmgz35NlJ2r1v3z9sAdHzSu_HHi2kCM6AGZYtxIRYr8JQUbbzlrgRlrz0z2TGKUcdbKrahZoPW7de9_DB5qZucQf7BsDUvvxNvhlXH76GdcZU0Ib48y2fFoIc8wVdjJ7XCz0AU7QB7r06EVx_kWSTp8GC19oSNkJNoo--zb_0kVKpjFmOjRJw6q0MNvdP_dq9xP_9_drfAsk31EBiZyiWhKNJGrd8dkroJ9wDe3EwhbqYflkKOnUywQpPMjgjVLx3rqFfn7uPXEdeFrrsB1eRPF7zkKIJgc_NRsdf5y8dQifUSznGIqny0?></g></svg>