<svg xmlns="http://www.w3.org/2000/svg" xmlns:xlink="http://www.w3.org/1999/xlink" contentStyleType="text/css" data-diagram-type="DESCRIPTION" height="362px" preserveAspectRatio="none" style="width:2048px;height:362px;background:#FFFFFF;" version="1.1" viewBox="0 0 2048 362" width="2048px" zoomAndPan="magnify"><?plantuml 1.2026.6?><defs/><g><g class="title" data-source-line="5"><text fill="#000000" font-family="Verdana" font-size="22" font-weight="700" lengthAdjust="spacing" textLength="524.2188" x="761.0598" y="37.1182">BC-04 Sales Commitment &#8212; C4 L3 TARGET</text></g><!--cluster Nexa API ? logical BC-04 ownership--><g class="cluster" data-qualified-name="Nexa API . logical BC-04 ownership" data-source-line="9" id="ent0001"><path d="M13.5,100.6373 L302.2383,100.6373 A3.75,3.75 0 0 1 304.7383,103.1373 L311.7383,123.652 L2002.82,123.652 A2.5,2.5 0 0 1 2005.32,126.152 L2005.32,238.1373 A2.5,2.5 0 0 1 2002.82,240.6373 L13.5,240.6373 A2.5,2.5 0 0 1 11,238.1373 L11,103.1373 A2.5,2.5 0 0 1 13.5,100.6373" fill="#FFFFFF" style="stroke:#000000;stroke-width:1;"/><line style="stroke:#000000;stroke-width:1;" x1="11" x2="311.7383" y1="123.652" y2="123.652"/><text fill="#000000" font-family="Verdana" font-size="14" font-weight="700" lengthAdjust="spacing" textLength="287.7383" x="15" y="116.7125">Nexa API &#8212; logical BC-04 ownership</text></g><!--entity api--><g class="entity" data-qualified-name="Nexa API . logical BC-04 ownership.api" data-source-line="10" id="ent0002"><rect fill="#FFFFFF" height="54.0293" rx="2.5" ry="2.5" style="stroke:#000000;stroke-width:1;" width="182.4014" x="27" y="153.6173"/><text fill="#000000" font-family="Verdana" font-size="14" lengthAdjust="spacing" textLength="162.4014" x="37" y="177.6925">Sales Commitment API</text><text fill="#000000" font-family="Verdana" font-size="14" lengthAdjust="spacing" textLength="81.5938" x="37" y="194.7071">&#171;Interface&#187;</text></g><!--entity app--><g class="entity" data-qualified-name="Nexa API . logical BC-04 ownership.app" data-source-line="11" id="ent0003"><rect fill="#FFFFFF" height="88.0586" rx="2.5" ry="2.5" style="stroke:#000000;stroke-width:1;" width="250.1934" x="270.4" y="136.6073"/><text fill="#000000" font-family="Verdana" font-size="14" lengthAdjust="spacing" textLength="225.0732" x="280.4" y="160.6825">SubmitPurchaseRequestHandler</text><text fill="#000000" font-family="Verdana" font-size="14" lengthAdjust="spacing" textLength="230.1934" x="280.4" y="177.6971">ConvertPurchaseRequestHandler</text><text fill="#000000" font-family="Verdana" font-size="14" lengthAdjust="spacing" textLength="191.9395" x="280.4" y="194.7118">ConfirmDirectOrderHandler</text><text fill="#000000" font-family="Verdana" font-size="14" lengthAdjust="spacing" textLength="95.1631" x="280.4" y="211.7264">&#171;Application&#187;</text></g><!--entity domain--><g class="entity" data-qualified-name="Nexa API . logical BC-04 ownership.domain" data-source-line="12" id="ent0004"><rect fill="#FFFFFF" height="54.0293" rx="2.5" ry="2.5" style="stroke:#000000;stroke-width:1;" width="394.459" x="727.73" y="153.6173"/><text fill="#000000" font-family="Verdana" font-size="14" lengthAdjust="spacing" textLength="374.459" x="737.73" y="177.6925">Draft, Purchase Request, Commitment &amp; Sales Order</text><text fill="#000000" font-family="Verdana" font-size="14" lengthAdjust="spacing" textLength="72.0576" x="737.73" y="194.7071">&#171;Domain&#187;</text></g><!--entity infra--><g class="entity" data-qualified-name="Nexa API . logical BC-04 ownership.infra" data-source-line="13" id="ent0005"><rect fill="#FFFFFF" height="54.0293" rx="2.5" ry="2.5" style="stroke:#000000;stroke-width:1;" width="375.0313" x="1216.32" y="158.6173"/><text fill="#000000" font-family="Verdana" font-size="14" lengthAdjust="spacing" textLength="355.0313" x="1226.32" y="182.6925">Commitment Repositories, Idempotency &amp; Outbox</text><text fill="#000000" font-family="Verdana" font-size="14" lengthAdjust="spacing" textLength="115.7324" x="1226.32" y="199.7071">&#171;Infrastructure&#187;</text></g><!--entity db--><g class="entity" data-qualified-name="Nexa API . logical BC-04 ownership.db" data-source-line="14" id="ent0006"><path d="M1829.37,164.1173 C1829.37,154.1173 1909.3427,154.1173 1909.3427,154.1173 C1909.3427,154.1173 1989.3153,154.1173 1989.3153,164.1173 L1989.3153,207.1466 C1989.3153,217.1466 1909.3427,217.1466 1909.3427,217.1466 C1909.3427,217.1466 1829.37,217.1466 1829.37,207.1466 L1829.37,164.1173" fill="#FFFFFF" style="stroke:#000000;stroke-width:1;"/><path d="M1829.37,164.1173 C1829.37,174.1173 1909.3427,174.1173 1909.3427,174.1173 C1909.3427,174.1173 1989.3153,174.1173 1989.3153,164.1173" fill="none" style="stroke:#000000;stroke-width:1;"/><text fill="#000000" font-family="Verdana" font-size="14" lengthAdjust="spacing" textLength="135.9668" x="1839.37" y="192.1925">Shared PostgreSQL</text><text fill="#000000" font-family="Verdana" font-size="14" lengthAdjust="spacing" textLength="139.9453" x="1839.37" y="209.2071">BC-04 logical tables</text></g><!--entity decisions--><g class="entity" data-qualified-name="decisions" data-source-line="16" id="ent0007"><rect fill="#FFFFFF" height="54.0293" rx="2.5" ry="2.5" style="stroke:#000000;stroke-width:1;" width="257.8086" x="796.05" y="256.6173"/><text fill="#000000" font-family="Verdana" font-size="14" lengthAdjust="spacing" textLength="229.9883" x="806.05" y="280.6925">BC-02, BC-03, BC-05 and BC-07</text><text fill="#000000" font-family="Verdana" font-size="14" lengthAdjust="spacing" textLength="237.8086" x="806.05" y="297.7071">&#171;synchronous decision contracts&#187;</text></g><!--entity consumers--><g class="entity" data-qualified-name="consumers" data-source-line="17" id="ent0008"><rect fill="#FFFFFF" height="54.0293" rx="2.5" ry="2.5" style="stroke:#000000;stroke-width:1;" width="249.9883" x="1784.35" y="256.6173"/><text fill="#000000" font-family="Verdana" font-size="14" lengthAdjust="spacing" textLength="229.9883" x="1794.35" y="280.6925">BC-06, BC-09, BC-10 and BC-11</text><text fill="#000000" font-family="Verdana" font-size="14" lengthAdjust="spacing" textLength="197.2646" x="1794.35" y="297.7071">&#171;published fact consumers&#187;</text></g><g class="entity" data-qualified-name="GMN15" data-source-line="25" id="ent0016"><path d="M694.59,58.7373 L694.59,84.5366 A0,0 0 0 0 694.59,84.5366 L920.96,84.5366 L924.96,153.3873 L928.96,84.5366 L1155.3175,84.5366 A0,0 0 0 0 1155.3175,84.5366 L1155.3175,68.7373 L1145.3175,58.7373 L694.59,58.7373 A0,0 0 0 0 694.59,58.7373" fill="#FFFFFF" style="stroke:#000000;stroke-width:1;"/><path d="M1145.3175,58.7373 L1145.3175,68.7373 L1155.3175,68.7373 L1145.3175,58.7373" fill="#FFFFFF" style="stroke:#000000;stroke-width:1;"/><text fill="#000000" font-family="Verdana" font-size="13" lengthAdjust="spacing" textLength="439.7275" x="700.59" y="76.8071">Draft != PR != SO; Commitment != Backing != Physical Allocation.</text></g><!--link api to app--><g class="link" data-entity-1="ent0002" data-entity-2="ent0003" data-link-type="dependency" data-source-line="18" id="lnk9"><path d="M209.72,180.6373 C229,180.6373 244.68,180.6373 264.97,180.6373" fill="none" id="api-to-app" style="stroke:#000000;stroke-width:1;"/><polygon fill="#000000" points="269.97,180.6373,260.97,176.6373,264.97,180.6373,260.97,184.6373,269.97,180.6373" style="stroke:#000000;stroke-width:1;stroke-linejoin:miter;stroke-miterlimit:10;"/></g><!--link app to domain--><g class="link" data-entity-1="ent0003" data-entity-2="ent0004" data-link-type="dependency" data-source-line="19" id="lnk10"><path d="M520.83,180.6373 C582.43,180.6373 653.27,180.6373 722.48,180.6373" fill="none" id="app-to-domain" style="stroke:#000000;stroke-width:1;"/><polygon fill="#000000" points="727.48,180.6373,718.48,176.6373,722.48,180.6373,718.48,184.6373,727.48,180.6373" style="stroke:#000000;stroke-width:1;stroke-linejoin:miter;stroke-miterlimit:10;"/><text fill="#000000" font-family="Verdana" font-size="13" lengthAdjust="spacing" textLength="98.5981" x="558.59" y="177.7071">decide lifecycle</text></g><!--link domain to infra--><g class="link" data-entity-1="ent0004" data-entity-2="ent0005" data-link-type="dependency" data-source-line="20" id="lnk11"><path d="M1122.68,182.6973 C1153.59,183.0173 1180.4803,183.3052 1211.1603,183.6252" fill="none" id="domain-to-infra" style="stroke:#000000;stroke-width:1;"/><polygon fill="#000000" points="1216.16,183.6773,1207.2022,179.5837,1211.1603,183.6252,1207.1188,187.5832,1216.16,183.6773" style="stroke:#000000;stroke-width:1;stroke-linejoin:miter;stroke-miterlimit:10;"/></g><!--link infra to db--><g class="link" data-entity-1="ent0005" data-entity-2="ent0006" data-link-type="dependency" data-source-line="21" id="lnk12"><path d="M1591.61,185.6373 C1673.61,185.6373 1760.49,185.6373 1824.08,185.6373" fill="none" id="infra-to-db" style="stroke:#000000;stroke-width:1;"/><polygon fill="#000000" points="1829.08,185.6373,1820.08,181.6373,1824.08,185.6373,1820.08,189.6373,1829.08,185.6373" style="stroke:#000000;stroke-width:1;stroke-linejoin:miter;stroke-miterlimit:10;"/></g><!--link app to decisions--><g class="link" data-entity-1="ent0003" data-entity-2="ent0007" data-link-type="dependency" data-source-line="22" id="lnk13"><path d="M520.79,206.0373 C574.25,216.8573 637.46,229.5273 694.59,240.6373 C727.31,246.9873 757.756,252.7739 790.696,258.9639" fill="none" id="app-to-decisions" style="stroke:#000000;stroke-width:1;"/><polygon fill="#000000" points="795.61,259.8873,787.5036,254.294,790.696,258.9639,786.0261,262.1563,795.61,259.8873" style="stroke:#000000;stroke-width:1;stroke-linejoin:miter;stroke-miterlimit:10;"/><text fill="#000000" font-family="Verdana" font-size="13" lengthAdjust="spacing" textLength="112.7534" x="551.59" y="210.1571">validate / protect</text></g><!--link infra to consumers--><g class="link" data-entity-1="ent0005" data-entity-2="ent0008" data-link-type="dependency" data-source-line="23" id="lnk14"><path d="M1546.1,213.1273 C1620.86,227.6773 1706.9321,244.432 1779.0121,258.462" fill="none" id="infra-to-consumers" style="stroke:#000000;stroke-width:1;"/><polygon fill="#000000" points="1783.92,259.4173,1775.85,253.7715,1779.0121,258.462,1774.3216,261.6241,1783.92,259.4173" style="stroke:#000000;stroke-width:1;stroke-linejoin:miter;stroke-miterlimit:10;"/><text fill="#000000" font-family="Verdana" font-size="13" lengthAdjust="spacing" textLength="131.9233" x="1622.35" y="225.8371">post-commit outbox</text></g><g class="legend" data-source-line="6"><rect fill="none" height="27.0146" rx="7.5" ry="7.5" style="stroke:#000000;stroke-width:1;" width="711.2852" x="667.5266" y="323.6466"/><text fill="#000000" font-family="Verdana" font-size="14" lengthAdjust="spacing" textLength="701.2852" x="672.5266" y="342.7218">Component view inside the shared Nexa API modular monolith; no separate deployment is implied.</text></g><?plantuml-src VLJ1RXCn4BtlLqnpu9H0Imi829NI546bYeQanrwyzkokLQzjxDcs4KBY8_X2leInTpUaHUAGzNfdvisRUJCve0PR16-4jeN1Ye0S15qt14e7bAITBUAjjbu4qK9iX7BtsjPG2HDnpo9Twvr5InlQ6eGKAcnji21DV3zRpWvFO2CCHbYwjjNKiY_y_laBbYTmUGpNY_MdZzTCeKQhe7H4hYqW-VQmSAVn7hIDMY4mwKGbe88l-21WiRg0rgdEYC2dTKPJynwiWuY97I4ezCPjSquTGRVUQ5JF2yxLPooyaBUYHfZi01CtusejXHdektkB8JRQJ-0xSzkL39D_2cE06pkVNrZ2K0c9fwSJ4164rqy2kv93LbsGZOYuncyTHlei4grmOvVEtc7udxdIeJtFGbq5XM5dciyNdckK8WcuI-uV9pyFeg8fZF0mu4_t2tasY9RX4-wvQtbM1aYLBuzHzuBNw5tKv8B6E8KBXUn4QEMMOQywAjr3twGgY4YXazI5iLCwVMHW9KYKYTnaqmk-Sf7gW9klbpUsbsKKYHsPQS-hB7uKUvoIuyjfbl6uFru1jog_lKaSujRA9l3eT1oCKaTk6nTbAGX9SQnsCCIdqAzxpBVvE3eSeO-E4hJlIgDZmzHv42Y1ngxbEHf0T_U2XmDcizEi4__oUzzWU9Tpy-GRNQ7SIjwhmPAS-bxbPnzK_eqVAJF4dJ1QfMLu0Jwm3fBsOdOqs955evdCCeBBCXMM_OUj15UDkkS1WeCFi5gdv-Rg_Vxey9SptghqRv5ScctCCYsCSVrSvls31Fq7?></g></svg>