<svg xmlns="http://www.w3.org/2000/svg" xmlns:xlink="http://www.w3.org/1999/xlink" contentStyleType="text/css" data-diagram-type="CLASS" height="696px" preserveAspectRatio="none" style="width:1376px;height:696px;background:#FFFFFF;" version="1.1" viewBox="0 0 1376 696" width="1376px" zoomAndPan="magnify"><?plantuml 1.2026.6?><defs/><g><g class="title" data-source-line="1"><text fill="#000000" font-family="sans-serif" font-size="14" font-weight="700" lengthAdjust="spacing" textLength="459.6416" x="454.8859" y="23.5352">BC-01 Tenant &amp; Access Governance &#8212; Logical Database Design</text></g><!--class tenant--><g class="entity" data-qualified-name="tenant" data-source-line="12" id="ent0001"><rect fill="#F1F1F1" height="105.9531" rx="2.5" ry="2.5" style="stroke:#181818;stroke-width:0.5;" width="277.0635" x="1084.35" y="177.2483"/><ellipse cx="1196.9413" cy="193.2483" fill="#ADD1B2" rx="11" ry="11" style="stroke:#181818;stroke-width:1;"/><path d="M1200.5556,199.7483 L1192.8358,199.7483 L1192.8358,187.3552 L1200.5556,187.3552 L1200.5556,189.5134 L1195.2846,189.5134 L1195.2846,192.1863 L1200.0575,192.1863 L1200.0575,194.3445 L1195.2846,194.3445 L1195.2846,197.5901 L1200.5556,197.5901 Z " fill="#000000"/><text fill="#000000" font-family="sans-serif" font-size="14" lengthAdjust="spacing" textLength="43.3809" x="1217.4413" y="198.5393">tenant</text><line style="stroke:#181818;stroke-width:0.5;" x1="1085.35" x2="1360.4135" y1="209.2483" y2="209.2483"/><g data-visibility-modifier="IE_MANDATORY"><ellipse cx="1095.35" cy="222.9924" fill="#000000" rx="3" ry="3" style="stroke:#000000;stroke-width:1;"/></g><text fill="#000000" font-family="sans-serif" font-size="14" lengthAdjust="spacing" textLength="142.7412" x="1104.35" y="226.7834">tenant_id : uuid &#171;PK&#187;</text><g data-visibility-modifier="IE_MANDATORY"><ellipse cx="1095.35" cy="239.4807" fill="#000000" rx="3" ry="3" style="stroke:#000000;stroke-width:1;"/></g><text fill="#000000" font-family="sans-serif" font-size="14" lengthAdjust="spacing" textLength="187.0791" x="1104.35" y="243.2717">version : integer &#171;required&#187;</text><g data-visibility-modifier="IE_MANDATORY"><ellipse cx="1095.35" cy="255.969" fill="#000000" rx="3" ry="3" style="stroke:#000000;stroke-width:1;"/></g><text fill="#000000" font-family="sans-serif" font-size="14" lengthAdjust="spacing" textLength="245.4512" x="1104.35" y="259.76">created_at : timestamptz &#171;required&#187;</text><g data-visibility-modifier="IE_MANDATORY"><ellipse cx="1095.35" cy="272.4573" fill="#000000" rx="3" ry="3" style="stroke:#000000;stroke-width:1;"/></g><text fill="#000000" font-family="sans-serif" font-size="14" lengthAdjust="spacing" textLength="251.0635" x="1104.35" y="276.2483">updated_at : timestamptz &#171;required&#187;</text></g><!--class workspace--><g class="entity" data-qualified-name="workspace" data-source-line="22" id="ent0002"><rect fill="#F1F1F1" height="89.4648" rx="2.5" ry="2.5" style="stroke:#181818;stroke-width:0.5;" width="290.3662" x="719.34" y="44.4883"/><ellipse cx="824.299" cy="60.4883" fill="#ADD1B2" rx="11" ry="11" style="stroke:#181818;stroke-width:1;"/><path d="M827.9132,66.9883 L820.1935,66.9883 L820.1935,54.5952 L827.9132,54.5952 L827.9132,56.7534 L822.6422,56.7534 L822.6422,59.4263 L827.4152,59.4263 L827.4152,61.5845 L822.6422,61.5845 L822.6422,64.8301 L827.9132,64.8301 Z " fill="#000000"/><text fill="#000000" font-family="sans-serif" font-size="14" lengthAdjust="spacing" textLength="71.9482" x="844.799" y="65.7793">workspace</text><line style="stroke:#181818;stroke-width:0.5;" x1="720.34" x2="1008.7062" y1="76.4883" y2="76.4883"/><g data-visibility-modifier="IE_MANDATORY"><ellipse cx="730.34" cy="90.2324" fill="#000000" rx="3" ry="3" style="stroke:#000000;stroke-width:1;"/></g><text fill="#000000" font-family="sans-serif" font-size="14" lengthAdjust="spacing" textLength="171.3086" x="739.34" y="94.0234">workspace_id : uuid &#171;PK&#187;</text><g data-visibility-modifier="IE_MANDATORY"><ellipse cx="730.34" cy="106.7207" fill="#000000" rx="3" ry="3" style="stroke:#000000;stroke-width:1;"/></g><text fill="#000000" font-family="sans-serif" font-size="14" lengthAdjust="spacing" textLength="264.3662" x="739.34" y="110.5117">tenant_id : uuid &#171;FK, required, unique&#187;</text><g data-visibility-modifier="IE_MANDATORY"><ellipse cx="730.34" cy="123.209" fill="#000000" rx="3" ry="3" style="stroke:#000000;stroke-width:1;"/></g><text fill="#000000" font-family="sans-serif" font-size="14" lengthAdjust="spacing" textLength="187.0791" x="739.34" y="127">version : integer &#171;required&#187;</text></g><!--class human_identity--><g class="entity" data-qualified-name="human_identity" data-source-line="30" id="ent0003"><rect fill="#F1F1F1" height="72.9766" rx="2.5" ry="2.5" style="stroke:#181818;stroke-width:0.5;" width="230.4082" x="749.32" y="326.7283"/><ellipse cx="807.7502" cy="342.7283" fill="#ADD1B2" rx="11" ry="11" style="stroke:#181818;stroke-width:1;"/><path d="M811.3644,349.2283 L803.6447,349.2283 L803.6447,336.8352 L811.3644,336.8352 L811.3644,338.9934 L806.0934,338.9934 L806.0934,341.6663 L810.8664,341.6663 L810.8664,343.8245 L806.0934,343.8245 L806.0934,347.0701 L811.3644,347.0701 Z " fill="#000000"/><text fill="#000000" font-family="sans-serif" font-size="14" lengthAdjust="spacing" textLength="105.0479" x="828.2502" y="348.0193">human_identity</text><line style="stroke:#181818;stroke-width:0.5;" x1="750.32" x2="978.7282" y1="358.7283" y2="358.7283"/><g data-visibility-modifier="IE_MANDATORY"><ellipse cx="760.32" cy="372.4724" fill="#000000" rx="3" ry="3" style="stroke:#000000;stroke-width:1;"/></g><text fill="#000000" font-family="sans-serif" font-size="14" lengthAdjust="spacing" textLength="204.4082" x="769.32" y="376.2634">human_identity_id : uuid &#171;PK&#187;</text><text fill="#000000" font-family="sans-serif" font-size="14" lengthAdjust="spacing" textLength="169.2852" x="769.32" y="392.7517">verified_at : timestamptz</text></g><!--class onboarding_request--><g class="entity" data-qualified-name="onboarding_request" data-source-line="38" id="ent0004"><rect fill="#F1F1F1" height="122.4414" rx="2.5" ry="2.5" style="stroke:#181818;stroke-width:0.5;" width="319.6445" x="704.7" y="168.9983"/><ellipse cx="757.7605" cy="184.9983" fill="#ADD1B2" rx="11" ry="11" style="stroke:#181818;stroke-width:1;"/><path d="M761.3748,191.4983 L753.6551,191.4983 L753.6551,179.1052 L761.3748,179.1052 L761.3748,181.2634 L756.1038,181.2634 L756.1038,183.9363 L760.8768,183.9363 L760.8768,186.0945 L756.1038,186.0945 L756.1038,189.3401 L761.3748,189.3401 Z " fill="#000000"/><text fill="#000000" font-family="sans-serif" font-size="14" lengthAdjust="spacing" textLength="205.0234" x="778.2605" y="190.2893">company_onboarding_request</text><line style="stroke:#181818;stroke-width:0.5;" x1="705.7" x2="1023.3445" y1="200.9983" y2="200.9983"/><g data-visibility-modifier="IE_MANDATORY"><ellipse cx="715.7" cy="214.7424" fill="#000000" rx="3" ry="3" style="stroke:#000000;stroke-width:1;"/></g><text fill="#000000" font-family="sans-serif" font-size="14" lengthAdjust="spacing" textLength="150.5615" x="724.7" y="218.5334">request_id : uuid &#171;PK&#187;</text><text fill="#000000" font-family="sans-serif" font-size="14" lengthAdjust="spacing" textLength="293.6445" x="724.7" y="235.0217">provisioned_tenant_id : uuid &#171;FK, optional&#187;</text><g data-visibility-modifier="IE_MANDATORY"><ellipse cx="715.7" cy="247.719" fill="#000000" rx="3" ry="3" style="stroke:#000000;stroke-width:1;"/></g><text fill="#000000" font-family="sans-serif" font-size="14" lengthAdjust="spacing" textLength="264.0107" x="724.7" y="251.51">submitted_at : timestamptz &#171;required&#187;</text><text fill="#000000" font-family="sans-serif" font-size="14" lengthAdjust="spacing" textLength="171.9102" x="724.7" y="267.9983">decided_at : timestamptz</text><g data-visibility-modifier="IE_MANDATORY"><ellipse cx="715.7" cy="280.6955" fill="#000000" rx="3" ry="3" style="stroke:#000000;stroke-width:1;"/></g><text fill="#000000" font-family="sans-serif" font-size="14" lengthAdjust="spacing" textLength="187.0791" x="724.7" y="284.4866">version : integer &#171;required&#187;</text></g><!--class workforce_membership--><g class="entity" data-qualified-name="workforce_membership" data-source-line="51" id="ent0005"><rect fill="#F1F1F1" height="105.9531" rx="2.5" ry="2.5" style="stroke:#181818;stroke-width:0.5;" width="296.4502" x="348.25" y="266.2483"/><ellipse cx="412.3711" cy="282.2483" fill="#ADD1B2" rx="11" ry="11" style="stroke:#181818;stroke-width:1;"/><path d="M415.9854,288.7483 L408.2656,288.7483 L408.2656,276.3552 L415.9854,276.3552 L415.9854,278.5134 L410.7144,278.5134 L410.7144,281.1863 L415.4873,281.1863 L415.4873,283.3445 L410.7144,283.3445 L410.7144,286.5901 L415.9854,286.5901 Z " fill="#000000"/><text fill="#000000" font-family="sans-serif" font-size="14" lengthAdjust="spacing" textLength="159.708" x="432.8711" y="287.5393">workforce_membership</text><line style="stroke:#181818;stroke-width:0.5;" x1="349.25" x2="643.7002" y1="298.2483" y2="298.2483"/><g data-visibility-modifier="IE_MANDATORY"><ellipse cx="359.25" cy="311.9924" fill="#000000" rx="3" ry="3" style="stroke:#000000;stroke-width:1;"/></g><text fill="#000000" font-family="sans-serif" font-size="14" lengthAdjust="spacing" textLength="184.3242" x="368.25" y="315.7834">membership_id : uuid &#171;PK&#187;</text><g data-visibility-modifier="IE_MANDATORY"><ellipse cx="359.25" cy="328.4807" fill="#000000" rx="3" ry="3" style="stroke:#000000;stroke-width:1;"/></g><text fill="#000000" font-family="sans-serif" font-size="14" lengthAdjust="spacing" textLength="237.3506" x="368.25" y="332.2717">workspace_id : uuid &#171;FK, required&#187;</text><g data-visibility-modifier="IE_MANDATORY"><ellipse cx="359.25" cy="344.969" fill="#000000" rx="3" ry="3" style="stroke:#000000;stroke-width:1;"/></g><text fill="#000000" font-family="sans-serif" font-size="14" lengthAdjust="spacing" textLength="270.4502" x="368.25" y="348.76">human_identity_id : uuid &#171;FK, required&#187;</text><g data-visibility-modifier="IE_MANDATORY"><ellipse cx="359.25" cy="361.4573" fill="#000000" rx="3" ry="3" style="stroke:#000000;stroke-width:1;"/></g><text fill="#000000" font-family="sans-serif" font-size="14" lengthAdjust="spacing" textLength="187.0791" x="368.25" y="365.2483">version : integer &#171;required&#187;</text></g><!--class role_definition--><g class="entity" data-qualified-name="role_definition" data-source-line="59" id="ent0006"><rect fill="#F1F1F1" height="89.4648" rx="2.5" ry="2.5" style="stroke:#181818;stroke-width:0.5;" width="234.7832" x="379.09" y="407.4883"/><ellipse cx="443.088" cy="423.4883" fill="#ADD1B2" rx="11" ry="11" style="stroke:#181818;stroke-width:1;"/><path d="M446.7023,429.9883 L438.9826,429.9883 L438.9826,417.5952 L446.7023,417.5952 L446.7023,419.7534 L441.4313,419.7534 L441.4313,422.4263 L446.2043,422.4263 L446.2043,424.5845 L441.4313,424.5845 L441.4313,427.8301 L446.7023,427.8301 Z " fill="#000000"/><text fill="#000000" font-family="sans-serif" font-size="14" lengthAdjust="spacing" textLength="98.2871" x="463.588" y="428.7793">role_definition</text><line style="stroke:#181818;stroke-width:0.5;" x1="380.09" x2="612.8732" y1="439.4883" y2="439.4883"/><g data-visibility-modifier="IE_MANDATORY"><ellipse cx="390.09" cy="453.2324" fill="#000000" rx="3" ry="3" style="stroke:#000000;stroke-width:1;"/></g><text fill="#000000" font-family="sans-serif" font-size="14" lengthAdjust="spacing" textLength="125.5352" x="399.09" y="457.0234">role_id : uuid &#171;PK&#187;</text><g data-visibility-modifier="IE_MANDATORY"><ellipse cx="390.09" cy="469.7207" fill="#000000" rx="3" ry="3" style="stroke:#000000;stroke-width:1;"/></g><text fill="#000000" font-family="sans-serif" font-size="14" lengthAdjust="spacing" textLength="208.7832" x="399.09" y="473.5117">tenant_id : uuid &#171;FK, required&#187;</text><g data-visibility-modifier="IE_MANDATORY"><ellipse cx="390.09" cy="486.209" fill="#000000" rx="3" ry="3" style="stroke:#000000;stroke-width:1;"/></g><text fill="#000000" font-family="sans-serif" font-size="14" lengthAdjust="spacing" textLength="187.0791" x="399.09" y="490">version : integer &#171;required&#187;</text></g><!--class capability_definition--><g class="entity" data-qualified-name="capability_definition" data-source-line="67" id="ent0007"><rect fill="#F1F1F1" height="56.4883" rx="2.5" ry="2.5" style="stroke:#181818;stroke-width:0.5;" width="190.3086" x="401.32" y="531.9783"/><ellipse cx="425.8816" cy="547.9783" fill="#ADD1B2" rx="11" ry="11" style="stroke:#181818;stroke-width:1;"/><path d="M429.4959,554.4783 L421.7762,554.4783 L421.7762,542.0852 L429.4959,542.0852 L429.4959,544.2434 L424.2249,544.2434 L424.2249,546.9163 L428.9978,546.9163 L428.9978,549.0745 L424.2249,549.0745 L424.2249,552.3201 L429.4959,552.3201 Z " fill="#000000"/><text fill="#000000" font-family="sans-serif" font-size="14" lengthAdjust="spacing" textLength="137.0605" x="442.0064" y="553.2693">capability_definition</text><line style="stroke:#181818;stroke-width:0.5;" x1="402.32" x2="590.6286" y1="563.9783" y2="563.9783"/><g data-visibility-modifier="IE_MANDATORY"><ellipse cx="412.32" cy="577.7224" fill="#000000" rx="3" ry="3" style="stroke:#000000;stroke-width:1;"/></g><text fill="#000000" font-family="sans-serif" font-size="14" lengthAdjust="spacing" textLength="164.3086" x="421.32" y="581.5134">capability_id : uuid &#171;PK&#187;</text></g><!--class membership_role--><g class="entity" data-qualified-name="membership_role" data-source-line="73" id="ent0008"><rect fill="#F1F1F1" height="89.4648" rx="2.5" ry="2.5" style="stroke:#181818;stroke-width:0.5;" width="281.2539" x="7" y="275.4883"/><ellipse cx="84.3076" cy="291.4883" fill="#ADD1B2" rx="11" ry="11" style="stroke:#181818;stroke-width:1;"/><path d="M87.9219,297.9883 L80.2021,297.9883 L80.2021,285.5952 L87.9219,285.5952 L87.9219,287.7534 L82.6509,287.7534 L82.6509,290.4263 L87.4238,290.4263 L87.4238,292.5845 L82.6509,292.5845 L82.6509,295.8301 L87.9219,295.8301 Z " fill="#000000"/><text fill="#000000" font-family="sans-serif" font-size="14" lengthAdjust="spacing" textLength="118.1387" x="104.8076" y="296.7793">membership_role</text><line style="stroke:#181818;stroke-width:0.5;" x1="8" x2="287.2539" y1="307.4883" y2="307.4883"/><g data-visibility-modifier="IE_MANDATORY"><ellipse cx="18" cy="321.2324" fill="#000000" rx="3" ry="3" style="stroke:#000000;stroke-width:1;"/></g><text fill="#000000" font-family="sans-serif" font-size="14" lengthAdjust="spacing" textLength="250.3662" x="27" y="325.0234">membership_id : uuid &#171;FK, required&#187;</text><g data-visibility-modifier="IE_MANDATORY"><ellipse cx="18" cy="337.7207" fill="#000000" rx="3" ry="3" style="stroke:#000000;stroke-width:1;"/></g><text fill="#000000" font-family="sans-serif" font-size="14" lengthAdjust="spacing" textLength="191.5771" x="27" y="341.5117">role_id : uuid &#171;FK, required&#187;</text><g data-visibility-modifier="IE_MANDATORY"><ellipse cx="18" cy="354.209" fill="#000000" rx="3" ry="3" style="stroke:#000000;stroke-width:1;"/></g><text fill="#000000" font-family="sans-serif" font-size="14" lengthAdjust="spacing" textLength="255.2539" x="27" y="358">assigned_at : timestamptz &#171;required&#187;</text></g><!--class role_capability--><g class="entity" data-qualified-name="role_capability" data-source-line="79" id="ent0009"><rect fill="#F1F1F1" height="72.9766" rx="2.5" ry="2.5" style="stroke:#181818;stroke-width:0.5;" width="256.3506" x="19.45" y="523.7283"/><ellipse cx="94.3138" cy="539.7283" fill="#ADD1B2" rx="11" ry="11" style="stroke:#181818;stroke-width:1;"/><path d="M97.928,546.2283 L90.2083,546.2283 L90.2083,533.8352 L97.928,533.8352 L97.928,535.9934 L92.657,535.9934 L92.657,538.6663 L97.43,538.6663 L97.43,540.8245 L92.657,540.8245 L92.657,544.0701 L97.928,544.0701 Z " fill="#000000"/><text fill="#000000" font-family="sans-serif" font-size="14" lengthAdjust="spacing" textLength="98.123" x="114.8138" y="545.0193">role_capability</text><line style="stroke:#181818;stroke-width:0.5;" x1="20.45" x2="274.8006" y1="555.7283" y2="555.7283"/><g data-visibility-modifier="IE_MANDATORY"><ellipse cx="30.45" cy="569.4724" fill="#000000" rx="3" ry="3" style="stroke:#000000;stroke-width:1;"/></g><text fill="#000000" font-family="sans-serif" font-size="14" lengthAdjust="spacing" textLength="191.5771" x="39.45" y="573.2634">role_id : uuid &#171;FK, required&#187;</text><g data-visibility-modifier="IE_MANDATORY"><ellipse cx="30.45" cy="585.9607" fill="#000000" rx="3" ry="3" style="stroke:#000000;stroke-width:1;"/></g><text fill="#000000" font-family="sans-serif" font-size="14" lengthAdjust="spacing" textLength="230.3506" x="39.45" y="589.7517">capability_id : uuid &#171;FK, required&#187;</text></g><!--class capability_override--><g class="entity" data-qualified-name="capability_override" data-source-line="84" id="ent0010"><rect fill="#F1F1F1" height="89.4648" rx="2.5" ry="2.5" style="stroke:#181818;stroke-width:0.5;" width="276.3662" x="9.44" y="399.4883"/><ellipse cx="35.552" cy="415.4883" fill="#ADD1B2" rx="11" ry="11" style="stroke:#181818;stroke-width:1;"/><path d="M39.1663,421.9883 L31.4465,421.9883 L31.4465,409.5952 L39.1663,409.5952 L39.1663,411.7534 L33.8953,411.7534 L33.8953,414.4263 L38.6682,414.4263 L38.6682,416.5845 L33.8953,416.5845 L33.8953,419.8301 L39.1663,419.8301 Z " fill="#000000"/><text fill="#000000" font-family="sans-serif" font-size="14" lengthAdjust="spacing" textLength="219.6729" x="52.0213" y="420.7793">membership_capability_override</text><line style="stroke:#181818;stroke-width:0.5;" x1="10.44" x2="284.8062" y1="431.4883" y2="431.4883"/><g data-visibility-modifier="IE_MANDATORY"><ellipse cx="20.44" cy="445.2324" fill="#000000" rx="3" ry="3" style="stroke:#000000;stroke-width:1;"/></g><text fill="#000000" font-family="sans-serif" font-size="14" lengthAdjust="spacing" textLength="155.1211" x="29.44" y="449.0234">override_id : uuid &#171;PK&#187;</text><g data-visibility-modifier="IE_MANDATORY"><ellipse cx="20.44" cy="461.7207" fill="#000000" rx="3" ry="3" style="stroke:#000000;stroke-width:1;"/></g><text fill="#000000" font-family="sans-serif" font-size="14" lengthAdjust="spacing" textLength="250.3662" x="29.44" y="465.5117">membership_id : uuid &#171;FK, required&#187;</text><g data-visibility-modifier="IE_MANDATORY"><ellipse cx="20.44" cy="478.209" fill="#000000" rx="3" ry="3" style="stroke:#000000;stroke-width:1;"/></g><text fill="#000000" font-family="sans-serif" font-size="14" lengthAdjust="spacing" textLength="230.3506" x="29.44" y="482">capability_id : uuid &#171;FK, required&#187;</text></g><!--link workspace to tenant--><g class="link" data-entity-1="ent0002" data-entity-2="ent0001" data-link-type="crowfoot" data-source-line="92" id="lnk11"><path codeLine="92" d="M1028.09,89.2183 C1127.17,89.2183 1222.41,89.2183 1222.41,89.2183 C1222.41,89.2183 1222.41,128.9883 1222.41,168.9183" fill="none" id="workspace-tenant" style="stroke:#181818;stroke-width:1;"/><line style="stroke:#181818;stroke-width:1;" x1="1018.09" x2="1010.09" y1="89.2183" y2="95.2183"/><line style="stroke:#181818;stroke-width:1;" x1="1018.09" x2="1010.09" y1="89.2183" y2="83.2183"/><line style="stroke:#181818;stroke-width:1;" x1="1018.09" x2="1010.09" y1="89.2183" y2="89.2183"/><ellipse cx="1024.09" cy="89.2183" fill="none" rx="4" ry="4" style="stroke:#181818;stroke-width:1;"/><line style="stroke:#181818;stroke-width:1;" x1="1226.41" x2="1218.41" y1="172.9183" y2="172.9183"/><line style="stroke:#181818;stroke-width:1;" x1="1226.41" x2="1218.41" y1="169.9183" y2="169.9183"/><line style="stroke:#181818;stroke-width:1;" x1="1222.41" x2="1222.41" y1="168.9183" y2="176.9183"/><text fill="#000000" font-family="sans-serif" font-size="13" lengthAdjust="spacing" textLength="58.7222" x="1101.1" y="102.7866">tenant_id</text></g><!--link onboarding_request to tenant--><g class="link" data-entity-1="ent0004" data-entity-2="ent0001" data-link-type="crowfoot" data-source-line="93" id="lnk12"><path codeLine="93" d="M1042.84,230.2183 C1062.59,230.2183 1049.65,230.2183 1069.05,230.2183" fill="none" id="onboarding_request-tenant" style="stroke:#181818;stroke-width:1;"/><line style="stroke:#181818;stroke-width:1;" x1="1032.84" x2="1024.84" y1="230.2183" y2="236.2183"/><line style="stroke:#181818;stroke-width:1;" x1="1032.84" x2="1024.84" y1="230.2183" y2="224.2183"/><line style="stroke:#181818;stroke-width:1;" x1="1032.84" x2="1024.84" y1="230.2183" y2="230.2183"/><ellipse cx="1038.84" cy="230.2183" fill="none" rx="4" ry="4" style="stroke:#181818;stroke-width:1;"/><line style="stroke:#181818;stroke-width:1;" x1="1073.05" x2="1084.05" y1="230.2183" y2="230.2183"/><ellipse cx="1073.05" cy="230.2183" fill="none" rx="4" ry="4" style="stroke:#181818;stroke-width:1;"/><line style="stroke:#181818;stroke-width:1;" x1="1080.05" x2="1080.05" y1="226.2183" y2="234.2183"/><text fill="#000000" font-family="sans-serif" font-size="13" lengthAdjust="spacing" textLength="139.0581" x="914.44" y="243.7866">provisioned_tenant_id</text></g><!--link workforce_membership to workspace--><g class="link" data-entity-1="ent0005" data-entity-2="ent0002" data-link-type="crowfoot" data-source-line="94" id="lnk13"><path codeLine="94" d="M496.41,247.8783 C496.41,179.9283 496.41,89.2183 496.41,89.2183 C496.41,89.2183 608.14,89.2183 711.04,89.2183" fill="none" id="workforce_membership-workspace" style="stroke:#181818;stroke-width:1;"/><line style="stroke:#181818;stroke-width:1;" x1="496.41" x2="502.41" y1="257.8783" y2="265.8783"/><line style="stroke:#181818;stroke-width:1;" x1="496.41" x2="490.41" y1="257.8783" y2="265.8783"/><line style="stroke:#181818;stroke-width:1;" x1="496.41" x2="496.41" y1="257.8783" y2="265.8783"/><ellipse cx="496.41" cy="251.8783" fill="none" rx="4" ry="4" style="stroke:#181818;stroke-width:1;"/><line style="stroke:#181818;stroke-width:1;" x1="715.04" x2="715.04" y1="85.2183" y2="93.2183"/><line style="stroke:#181818;stroke-width:1;" x1="712.04" x2="712.04" y1="85.2183" y2="93.2183"/><line style="stroke:#181818;stroke-width:1;" x1="711.04" x2="719.04" y1="89.2183" y2="89.2183"/><text fill="#000000" font-family="sans-serif" font-size="13" lengthAdjust="spacing" textLength="85.249" x="433.4" y="102.7866">workspace_id</text></g><!--link workforce_membership to human_identity--><g class="link" data-entity-1="ent0005" data-entity-2="ent0003" data-link-type="crowfoot" data-source-line="95" id="lnk14"><path codeLine="95" d="M663.12,349.4683 C697.73,349.4683 708.08,349.4683 741.02,349.4683" fill="none" id="workforce_membership-human_identity" style="stroke:#181818;stroke-width:1;"/><line style="stroke:#181818;stroke-width:1;" x1="653.12" x2="645.12" y1="349.4683" y2="355.4683"/><line style="stroke:#181818;stroke-width:1;" x1="653.12" x2="645.12" y1="349.4683" y2="343.4683"/><line style="stroke:#181818;stroke-width:1;" x1="653.12" x2="645.12" y1="349.4683" y2="349.4683"/><ellipse cx="659.12" cy="349.4683" fill="none" rx="4" ry="4" style="stroke:#181818;stroke-width:1;"/><line style="stroke:#181818;stroke-width:1;" x1="745.02" x2="745.02" y1="345.4683" y2="353.4683"/><line style="stroke:#181818;stroke-width:1;" x1="742.02" x2="742.02" y1="345.4683" y2="353.4683"/><line style="stroke:#181818;stroke-width:1;" x1="741.02" x2="749.02" y1="349.4683" y2="349.4683"/><text fill="#000000" font-family="sans-serif" font-size="13" lengthAdjust="spacing" textLength="115.9844" x="581.07" y="363.0366">human_identity_id</text></g><!--link role_definition to tenant--><g class="link" data-entity-1="ent0006" data-entity-2="ent0001" data-link-type="crowfoot" data-source-line="96" id="lnk15"><path codeLine="96" d="M632.32,452.2183 C837.9,452.2183 1222.41,452.2183 1222.41,452.2183 C1222.41,452.2183 1222.41,357.3683 1222.41,291.6783" fill="none" id="role_definition-tenant" style="stroke:#181818;stroke-width:1;"/><line style="stroke:#181818;stroke-width:1;" x1="622.32" x2="614.32" y1="452.2183" y2="458.2183"/><line style="stroke:#181818;stroke-width:1;" x1="622.32" x2="614.32" y1="452.2183" y2="446.2183"/><line style="stroke:#181818;stroke-width:1;" x1="622.32" x2="614.32" y1="452.2183" y2="452.2183"/><ellipse cx="628.32" cy="452.2183" fill="none" rx="4" ry="4" style="stroke:#181818;stroke-width:1;"/><line style="stroke:#181818;stroke-width:1;" x1="1218.41" x2="1226.41" y1="287.6783" y2="287.6783"/><line style="stroke:#181818;stroke-width:1;" x1="1218.41" x2="1226.41" y1="290.6783" y2="290.6783"/><line style="stroke:#181818;stroke-width:1;" x1="1222.41" x2="1222.41" y1="291.6783" y2="283.6783"/><text fill="#000000" font-family="sans-serif" font-size="13" lengthAdjust="spacing" textLength="58.7222" x="943.64" y="465.7866">tenant_id</text></g><!--link membership_role to workforce_membership--><g class="link" data-entity-1="ent0008" data-entity-2="ent0005" data-link-type="crowfoot" data-source-line="97" id="lnk16"><path codeLine="97" d="M306.51,305.3083 C326.08,305.3083 320.24,305.3083 339.95,305.3083" fill="none" id="membership_role-workforce_membership" style="stroke:#181818;stroke-width:1;"/><line style="stroke:#181818;stroke-width:1;" x1="296.51" x2="288.51" y1="305.3083" y2="311.3083"/><line style="stroke:#181818;stroke-width:1;" x1="296.51" x2="288.51" y1="305.3083" y2="299.3083"/><line style="stroke:#181818;stroke-width:1;" x1="296.51" x2="288.51" y1="305.3083" y2="305.3083"/><ellipse cx="302.51" cy="305.3083" fill="none" rx="4" ry="4" style="stroke:#181818;stroke-width:1;"/><line style="stroke:#181818;stroke-width:1;" x1="343.95" x2="343.95" y1="301.3083" y2="309.3083"/><line style="stroke:#181818;stroke-width:1;" x1="340.95" x2="340.95" y1="301.3083" y2="309.3083"/><line style="stroke:#181818;stroke-width:1;" x1="339.95" x2="347.95" y1="305.3083" y2="305.3083"/><text fill="#000000" font-family="sans-serif" font-size="13" lengthAdjust="spacing" textLength="97.335" x="220.23" y="318.8766">membership_id</text></g><!--link membership_role to role_definition--><g class="link" data-entity-1="ent0008" data-entity-2="ent0006" data-link-type="crowfoot" data-source-line="98" id="lnk17"><path codeLine="98" d="M306.66,335.1283 C324.36,335.1283 318.41,335.1283 318.41,335.1283 C318.41,335.1283 318.41,448.2183 318.41,448.2183 C318.41,448.2183 337.58,448.2183 370.7,448.2183" fill="none" id="membership_role-role_definition" style="stroke:#181818;stroke-width:1;"/><line style="stroke:#181818;stroke-width:1;" x1="296.66" x2="288.66" y1="335.1283" y2="341.1283"/><line style="stroke:#181818;stroke-width:1;" x1="296.66" x2="288.66" y1="335.1283" y2="329.1283"/><line style="stroke:#181818;stroke-width:1;" x1="296.66" x2="288.66" y1="335.1283" y2="335.1283"/><ellipse cx="302.66" cy="335.1283" fill="none" rx="4" ry="4" style="stroke:#181818;stroke-width:1;"/><line style="stroke:#181818;stroke-width:1;" x1="374.7" x2="374.7" y1="444.2183" y2="452.2183"/><line style="stroke:#181818;stroke-width:1;" x1="371.7" x2="371.7" y1="444.2183" y2="452.2183"/><line style="stroke:#181818;stroke-width:1;" x1="370.7" x2="378.7" y1="448.2183" y2="448.2183"/><text fill="#000000" font-family="sans-serif" font-size="13" lengthAdjust="spacing" textLength="42.7451" x="319.41" y="420.5166">role_id</text></g><!--link role_capability to role_definition--><g class="link" data-entity-1="ent0009" data-entity-2="ent0006" data-link-type="crowfoot" data-source-line="99" id="lnk18"><path codeLine="99" d="M294.13,527.8583 C352.37,527.8583 390.41,527.8583 390.41,527.8583 C390.41,527.8583 390.41,521.3783 390.41,505.0883" fill="none" id="role_capability-role_definition" style="stroke:#181818;stroke-width:1;"/><line style="stroke:#181818;stroke-width:1;" x1="284.13" x2="276.13" y1="527.8583" y2="533.8583"/><line style="stroke:#181818;stroke-width:1;" x1="284.13" x2="276.13" y1="527.8583" y2="521.8583"/><line style="stroke:#181818;stroke-width:1;" x1="284.13" x2="276.13" y1="527.8583" y2="527.8583"/><ellipse cx="290.13" cy="527.8583" fill="none" rx="4" ry="4" style="stroke:#181818;stroke-width:1;"/><line style="stroke:#181818;stroke-width:1;" x1="386.41" x2="394.41" y1="501.0883" y2="501.0883"/><line style="stroke:#181818;stroke-width:1;" x1="386.41" x2="394.41" y1="504.0883" y2="504.0883"/><line style="stroke:#181818;stroke-width:1;" x1="390.41" x2="390.41" y1="505.0883" y2="497.0883"/><text fill="#000000" font-family="sans-serif" font-size="13" lengthAdjust="spacing" textLength="42.7451" x="305.65" y="541.4266">role_id</text></g><!--link role_capability to capability_definition--><g class="link" data-entity-1="ent0009" data-entity-2="ent0007" data-link-type="crowfoot" data-source-line="100" id="lnk19"><path codeLine="100" d="M294.04,569.6383 C335.42,569.6383 354.52,569.6383 393.09,569.6383" fill="none" id="role_capability-capability_definition" style="stroke:#181818;stroke-width:1;"/><line style="stroke:#181818;stroke-width:1;" x1="284.04" x2="276.04" y1="569.6383" y2="575.6383"/><line style="stroke:#181818;stroke-width:1;" x1="284.04" x2="276.04" y1="569.6383" y2="563.6383"/><line style="stroke:#181818;stroke-width:1;" x1="284.04" x2="276.04" y1="569.6383" y2="569.6383"/><ellipse cx="290.04" cy="569.6383" fill="none" rx="4" ry="4" style="stroke:#181818;stroke-width:1;"/><line style="stroke:#181818;stroke-width:1;" x1="397.09" x2="397.09" y1="565.6383" y2="573.6383"/><line style="stroke:#181818;stroke-width:1;" x1="394.09" x2="394.09" y1="565.6383" y2="573.6383"/><line style="stroke:#181818;stroke-width:1;" x1="393.09" x2="401.09" y1="569.6383" y2="569.6383"/><text fill="#000000" font-family="sans-serif" font-size="13" lengthAdjust="spacing" textLength="78.749" x="259.56" y="583.2066">capability_id</text></g><!--link capability_override to workforce_membership--><g class="link" data-entity-1="ent0010" data-entity-2="ent0005" data-link-type="crowfoot" data-source-line="101" id="lnk20"><path codeLine="101" d="M304.12,403.5983 C346.14,403.5983 363.41,403.5983 363.41,403.5983 C363.41,403.5983 363.41,397.3983 363.41,380.6583" fill="none" id="capability_override-workforce_membership" style="stroke:#181818;stroke-width:1;"/><line style="stroke:#181818;stroke-width:1;" x1="294.12" x2="286.12" y1="403.5983" y2="409.5983"/><line style="stroke:#181818;stroke-width:1;" x1="294.12" x2="286.12" y1="403.5983" y2="397.5983"/><line style="stroke:#181818;stroke-width:1;" x1="294.12" x2="286.12" y1="403.5983" y2="403.5983"/><ellipse cx="300.12" cy="403.5983" fill="none" rx="4" ry="4" style="stroke:#181818;stroke-width:1;"/><line style="stroke:#181818;stroke-width:1;" x1="359.41" x2="367.41" y1="376.6583" y2="376.6583"/><line style="stroke:#181818;stroke-width:1;" x1="359.41" x2="367.41" y1="379.6583" y2="379.6583"/><line style="stroke:#181818;stroke-width:1;" x1="363.41" x2="363.41" y1="380.6583" y2="372.6583"/><text fill="#000000" font-family="sans-serif" font-size="13" lengthAdjust="spacing" textLength="97.335" x="341.24" y="400.1666">membership_id</text></g><!--link capability_override to capability_definition--><g class="link" data-entity-1="ent0010" data-entity-2="ent0007" data-link-type="crowfoot" data-source-line="102" id="lnk21"><path codeLine="102" d="M280.41,507.4183 C280.41,536.4683 280.41,550.8083 280.41,550.8083 C280.41,550.8083 335.2,550.8083 393.08,550.8083" fill="none" id="capability_override-capability_definition" style="stroke:#181818;stroke-width:1;"/><line style="stroke:#181818;stroke-width:1;" x1="280.41" x2="274.41" y1="497.4183" y2="489.4183"/><line style="stroke:#181818;stroke-width:1;" x1="280.41" x2="286.41" y1="497.4183" y2="489.4183"/><line style="stroke:#181818;stroke-width:1;" x1="280.41" x2="280.41" y1="497.4183" y2="489.4183"/><ellipse cx="280.41" cy="503.4183" fill="none" rx="4" ry="4" style="stroke:#181818;stroke-width:1;"/><line style="stroke:#181818;stroke-width:1;" x1="397.08" x2="397.08" y1="546.8083" y2="554.8083"/><line style="stroke:#181818;stroke-width:1;" x1="394.08" x2="394.08" y1="546.8083" y2="554.8083"/><line style="stroke:#181818;stroke-width:1;" x1="393.08" x2="401.08" y1="550.8083" y2="550.8083"/><text fill="#000000" font-family="sans-serif" font-size="13" lengthAdjust="spacing" textLength="78.749" x="311.05" y="564.3766">capability_id</text></g><g class="legend" data-source-line="104"><rect fill="#DDDDDD" height="59.4648" rx="7.5" ry="7.5" style="stroke:#000000;stroke-width:1;" width="557.5518" x="799.8617" y="617.7048"/><text fill="#000000" font-family="sans-serif" font-size="14" lengthAdjust="spacing" textLength="458.5342" x="804.8617" y="636.24">workspace.tenant_id is unique and enforces Tenant 1:1 Workspace.</text><text fill="#000000" font-family="sans-serif" font-size="14" lengthAdjust="spacing" textLength="547.5518" x="804.8617" y="652.7283">Company onboarding starts without a Tenant; provisioned_tenant_id is optional.</text><text fill="#000000" font-family="sans-serif" font-size="14" lengthAdjust="spacing" textLength="428.4014" x="804.8617" y="669.2166">PK = primary key | FK = local reference | required = NOT NULL</text></g><?plantuml-src jLVTRjCm5BxFKno1X01jQDqOJEL76flAnIROnH2NrMbocfevTcOxcpg6n4FmX3m9nsdIfAbRMZIkMXz_pl7tdH_RJZX9yE5aTwy7bwHGENW2nt5Cri97VKE6JJ71xv-_u5od8aO9f-XmX9RWbAn8LIHfxC1fC2ATE4Y4eTW9hQA9I0WoSXETsCXU2PMZmGpi11DzArGAOvIMMZDIA7BJd40RNjIQ8EM4cyBt2E03nbUfqOLAJhJK1XuFZWR7WnC_eqr2fh8U7Bpi7HwoTQ2LgsnxWzxh_UFeHnHLttlaIiAF02tC_fOkdbU3eKYW3qN1Fs_VNfozVr_EIKfH3XLcn9CtQE89cgVxUtlF66Jekc3wIGMriaXReDuYQ0SA9QuBgi4ENM5Ry8Fzm2Sv89QrPPXGZb8oov3O43fAXkWOvKH6_EKiTtVBo29FDa2szBhLvihc65CfsNnKgJOVXuKBY3eusu5LSgpLxY4rQ_6R51agtk5iN99SD5LC5urXkagR3AMuOtqfGo4NThaw4O0BoEOIfw4KsvWqUD9YB0B1RVEDTPQZcWwr6caq2TVaq7-6eINtPNF5lng5YMEUI-uJ7Eg_yDwse83zfi8wWxwz35MHZJYMpPgZhGJAZRuHFYzOenMfgNFl2ENS-xTPPsCrq9O9LNiud0Ud66N2RL9-76YAEOK24TekQNtPZRNXiil8As8d8f_NPtUY2c1Z2CSmNChjSgs0QoeXW7xeUZLQqZ2XiL32nwLatR7L6Ukj_zAMwgQg4rfCjV_VZMBCSIIarxN3CJXJCMtD1VbscFJsrnrAVwtArdPREUNLBZVQiQtFle3iIs4BOD3wMyWsnrZvrKQd9cqQswgq2QL6MF0ECYnKQws_Qnakf6w0QtkreteO3kxcocwsQu-ayPZRNZjbNWNIEjWIboBGN1b-wDtT-_lwsjLloZ0Ad3eUh5lWOE-EWlskyjCuxYyqjxMBEcT_VxdRHTrkivfMjnHQ6rlotryCvAgrNUVzEb-ZRZR_wu9me-alPayKojPjwArPlza6-0cIaafcBv0coLuqlLtOgh41CevKkITRltXw_HvydQ-AJcRNejRzn_Tsu_X85VmmAHnWjVBDYci4kwil3o-YYpDunpYHePd25KtX7WRU9BL_JHaQao7_nhgVLnvFVlfy2P--d9zprqXcxFu0?></g></svg>